HIERARCHY
ROOT Hip
{
	OFFSET 0.000000 0.000000 0.000000 
	CHANNELS 6 Xposition Yposition Zposition Xrotation Yrotation Zrotation
	JOINT LowerSpine
	{
		OFFSET 0.000000 8.345300 -5.129200 
		CHANNELS 3 Xrotation Yrotation Zrotation
		JOINT MiddleSpine
		{
			OFFSET 10.856900 0.000000 0.000000 
			CHANNELS 3 Xrotation Yrotation Zrotation
			JOINT Chest
			{
				OFFSET 15.298400 0.000000 0.000000 
				CHANNELS 3 Xrotation Yrotation Zrotation
				JOINT Neck
				{
					OFFSET 25.661800 -0.598600 0.000000 
					CHANNELS 3 Xrotation Yrotation Zrotation
					JOINT Head
					{
						OFFSET 8.882900 0.000000 0.000000 
						CHANNELS 3 Xrotation Yrotation Zrotation
						End Site
						{
							OFFSET 19.739901 0.000000 0.000000 
						}
					}
				}
				JOINT RClavicle
				{
					OFFSET 23.687799 0.000000 3.158400 
					CHANNELS 3 Xrotation Yrotation Zrotation
					JOINT RShoulder
					{
						OFFSET -15.594500 -3.948000 0.987000 
						CHANNELS 3 Xrotation Yrotation Zrotation
						JOINT RForearm
						{
							OFFSET -31.337000 0.000000 0.197400 
							CHANNELS 3 Xrotation Yrotation Zrotation
							JOINT RHand
							{
								OFFSET -26.402100 0.000000 0.000000 
								CHANNELS 3 Xrotation Yrotation Zrotation
								End Site
								{
									OFFSET -15.791900 -0.987000 0.000000 
								}
							}
						}
					}
				}
				JOINT LClavicle
				{
					OFFSET 23.687799 0.000000 -3.158400 
					CHANNELS 3 Xrotation Yrotation Zrotation
					JOINT LShoulder
					{
						OFFSET -15.594500 -3.948000 -0.987000 
						CHANNELS 3 Xrotation Yrotation Zrotation
						JOINT LForearm
						{
							OFFSET -31.337000 0.000000 -0.197400 
							CHANNELS 3 Xrotation Yrotation Zrotation
							JOINT LHand
							{
								OFFSET -26.402100 0.000000 0.000000 
								CHANNELS 3 Xrotation Yrotation Zrotation
								End Site
								{
									OFFSET -15.791900 -0.987000 0.000000 
								}
							}
						}
					}
				}
			}
		}
	}
	JOINT RThigh
	{
		OFFSET -8.882900 0.448100 0.000000 
		CHANNELS 3 Xrotation Yrotation Zrotation
		JOINT RShin
		{
			OFFSET 43.131599 0.000000 -0.493500 
			CHANNELS 3 Xrotation Yrotation Zrotation
			JOINT RFoot
			{
				OFFSET 0.000000 -44.725601 -0.404700 
				CHANNELS 3 Xrotation Yrotation Zrotation
				JOINT RToe
				{
					OFFSET 0.000000 -3.933200 12.195300 
					CHANNELS 3 Xrotation Yrotation Zrotation
					End Site
					{
						OFFSET 6.772500 0.000000 0.000000 
					}
				}
			}
		}
	}
	JOINT LThigh
	{
		OFFSET 8.882900 0.448100 0.000000 
		CHANNELS 3 Xrotation Yrotation Zrotation
		JOINT LShin
		{
			OFFSET 43.131599 0.000000 0.493500 
			CHANNELS 3 Xrotation Yrotation Zrotation
			JOINT LFoot
			{
				OFFSET 0.000000 -44.725601 0.404700 
				CHANNELS 3 Xrotation Yrotation Zrotation
				JOINT LToe
				{
					OFFSET 0.000000 -3.933200 -12.195300 
					CHANNELS 3 Xrotation Yrotation Zrotation
					End Site
					{
						OFFSET 6.772500 0.000000 0.000000 
					}
				}
			}
		}
	}
}
MOTION
Frames: 8
Frame Time: 0.016949
7.385100 92.681099 -0.502400 -4.499145 -0.225548 0.631201 -89.999992 -90.000000 0.000000 -0.054837 0.008928 -0.170581 -0.182314 0.029191 -0.568673 0.000000 0.000000 0.000000 0.000000 0.000000 0.000000 90.019852 -0.662075 -81.094460 13.312380 26.804180 71.517632 2.002080 20.991579 -6.280816 0.000000 0.000000 0.000000 -90.005310 0.498089 -83.305931 -27.744289 -50.357109 56.312889 -2.113627 -21.931730 -6.321631 0.000000 0.000000 0.000000 -139.069794 88.341316 54.092960 89.902649 10.805200 89.998253 -9.622696 -0.329869 -0.150903 178.796204 90.000000 0.000000 177.639297 89.368782 98.164719 -89.925797 -8.257600 89.996933 8.137075 0.033661 0.003592 180.947403 -90.000000 0.000000 
7.362500 92.709297 -0.401600 -4.680483 -0.079152 0.470421 -89.999992 -90.000000 0.000000 -0.070466 -0.041484 -0.198324 -0.234413 -0.141358 -0.660991 0.000000 0.000000 0.000000 0.000000 0.000000 0.000000 90.014343 -0.607845 -81.826714 13.269150 26.721201 72.182762 2.031457 21.240370 -6.291399 0.000000 0.000000 0.000000 -90.003021 0.462823 -83.780640 -27.549110 -51.273590 56.626171 -2.045605 -21.359880 -6.296540 0.000000 0.000000 0.000000 -133.377396 88.217033 48.840900 89.906464 10.386470 89.997971 -9.292173 -0.514073 -0.233293 178.584000 90.000000 0.000000 -163.730301 89.323662 79.925308 -89.928871 -7.916722 89.996841 7.950418 -0.132292 0.121152 181.094894 -90.000000 0.000000 
7.318900 92.739799 -0.324900 -4.781750 0.216945 0.261132 -89.999992 -90.000000 0.000000 -0.081964 -0.087330 -0.215687 -0.273910 -0.296621 -0.719009 0.000000 0.000000 0.000000 0.000000 0.000000 0.000000 90.008980 -0.546996 -82.647133 13.642920 26.015949 72.575684 2.163639 22.349251 -6.340479 0.000000 0.000000 0.000000 -90.001312 0.432922 -84.182938 -27.435921 -52.081940 56.754559 -1.999511 -20.969790 -6.279897 0.000000 0.000000 0.000000 -126.457603 88.000488 42.359871 89.911758 9.803737 89.997627 -8.819679 -0.829379 -0.380442 178.225403 90.000000 0.000000 -144.555298 89.189339 60.982361 -89.931091 -7.670770 89.996803 7.755606 -0.219487 0.178312 181.355698 -90.000000 0.000000 
7.243700 92.781898 -0.274400 -4.805786 0.569493 -0.022245 -89.999992 -90.000000 0.000000 -0.089264 -0.124729 -0.223314 -0.301139 -0.414592 -0.745582 0.000000 0.000000 0.000000 0.000000 0.000000 0.000000 90.004097 -0.480017 -83.549156 14.470690 24.551901 72.261353 2.360307 23.966681 -6.417830 0.000000 0.000000 0.000000 -90.000008 0.407378 -84.526443 -27.452450 -52.666389 56.743240 -1.988900 -20.879690 -6.276108 0.000000 0.000000 0.000000 -119.684402 87.691467 35.962688 89.917473 9.174057 89.997337 -8.254102 -1.082443 -0.490815 177.877899 90.000000 0.000000 -127.413399 88.913368 43.874489 -89.931419 -7.635078 89.996788 7.738968 -0.483931 0.288789 181.431702 -90.000000 0.000000 
7.179200 92.841797 -0.268400 -4.748519 0.785071 -0.276884 -89.999992 -90.000000 0.000000 -0.094521 -0.149618 -0.224542 -0.322028 -0.481306 -0.751515 0.000000 0.000000 0.000000 0.000000 0.000000 0.000000 90.000008 -0.407372 -84.526459 15.283300 22.912710 71.366570 2.507873 25.154181 -6.479169 0.000000 0.000000 0.000000 -89.998901 0.382678 -84.858490 -27.632570 -53.065048 56.460209 -1.976163 -20.771410 -6.271580 0.000000 0.000000 0.000000 -115.530098 87.439903 31.939159 89.920982 8.785983 89.997192 -7.721225 -1.171527 -0.516131 177.588303 90.000000 0.000000 -118.586197 88.616570 34.917122 -89.930443 -7.742191 89.996803 7.765738 -0.869555 0.448494 181.390793 -90.000000 0.000000 
7.140000 92.914497 -0.308200 -4.611468 0.835901 -0.413586 -89.999992 -90.000000 0.000000 -0.114270 -0.157142 -0.218870 -0.393274 -0.514264 -0.730357 0.000000 0.000000 0.000000 0.000000 0.000000 0.000000 89.996986 -0.329520 -85.572853 15.727620 21.704000 70.509987 2.577383 25.705660 -6.509017 0.000000 0.000000 0.000000 -89.997787 0.353854 -85.245903 -28.218220 -53.139229 55.282681 -1.941117 -20.472651 -6.259236 0.000000 0.000000 0.000000 -113.909401 87.320549 30.179581 89.922028 8.670113 89.997147 -7.222880 -1.166722 -0.494128 177.179001 90.000000 0.000000 -115.869102 88.447929 32.016041 -89.930359 -7.751891 89.996811 7.568540 -1.042054 0.505069 181.502808 -90.000000 0.000000 
7.113400 92.990799 -0.341700 -4.465542 0.833304 -0.450211 -89.999992 -90.000000 0.000000 -0.124758 -0.153958 -0.216508 -0.448209 -0.488863 -0.718842 0.000000 0.000000 0.000000 0.000000 0.000000 0.000000 89.995354 -0.246584 -86.687042 15.886480 21.024071 70.145203 2.614516 25.998180 -6.525209 0.000000 0.000000 0.000000 -89.996620 0.316162 -85.752403 -29.310419 -52.642429 53.154079 -1.941281 -20.474060 -6.259294 0.000000 0.000000 0.000000 -113.541000 87.292526 29.661671 89.922997 8.562792 89.997108 -6.778624 -1.063230 -0.427619 176.835602 90.000000 0.000000 -115.753197 88.394829 31.789810 -89.931763 -7.596602 89.996780 7.203780 -1.012854 0.466029 181.703094 -90.000000 0.000000 
7.082700 93.062302 -0.344400 -4.344256 0.833871 -0.458577 -89.999992 -90.000000 0.000000 -0.159843 -0.131499 -0.210365 -0.527925 -0.433494 -0.704923 0.000000 0.000000 0.000000 0.000000 0.000000 0.000000 89.995369 -0.158191 -87.874268 15.821910 20.868530 70.368050 2.610517 25.966740 -6.523457 0.000000 0.000000 0.000000 -89.995613 0.266897 -86.414261 -30.527800 -51.727070 51.013901 -2.025672 -21.191441 -6.289308 0.000000 0.000000 0.000000 -113.218903 87.289803 29.330179 89.925659 8.268538 89.997017 -6.446058 -0.870568 -0.329469 176.852707 90.000000 0.000000 -115.958397 88.376534 31.890539 -89.932472 -7.517577 89.996758 6.863873 -0.933531 0.413814 181.958405 -90.000000 0.000000 
